inDegrees=yes
name=ik_XSDot_20240315_154836_orientations
DataType=double
version=3
OpenSimVersion=4.5-2024-01-10-34fd6af
endheader
time	pelvis_tilt	pelvis_list	pelvis_rotation	pelvis_tx	pelvis_ty	pelvis_tz	hip_flexion_r	hip_adduction_r	hip_rotation_r	knee_angle_r	ankle_angle_r	subtalar_angle_r	mtp_angle_r	hip_flexion_l	hip_adduction_l	hip_rotation_l	knee_angle_l	ankle_angle_l	subtalar_angle_l	mtp_angle_l	lumbar_extension	lumbar_bending	lumbar_rotation
0	41.67247562751047	-16.2160843759228	70.87673427460861	0	0.95	0	-156.9867981055761	2.89379912684965	29.3501987529065	-27.18461895521936	0	0	0	2.329466970718131	-10.71095743605302	13.49236586953441	-131.3453757250282	0	0	0	0	0	0
0.01	41.61136751971611	-16.25511993643557	70.83432395825356	0	0.95	0	-156.9745870185609	2.893078101374606	29.32144881423576	-27.0816738605471	0	0	0	2.335490938252364	-10.76208160144348	13.4615510969002	-131.2618612457044	0	0	0	0	0	0
0.02	41.54598934039056	-16.30595302152727	70.75271606030348	0	0.95	0	-156.8478271031622	2.92685877019601	29.2461496471737	-27.07719348925555	0	0	0	2.307201948820106	-10.77240997468955	13.36113895931659	-131.1387493461997	0	0	0	0	0	0
0.03	41.49685260930924	-16.35123371853492	70.68808699060476	0	0.95	0	-156.720040649195	2.931828948203131	29.16400502750544	-27.11361981673497	0	0	0	2.245901444970082	-10.77707539968918	13.25964603828997	-131.0052878494189	0	0	0	0	0	0
0.04	41.42822298622095	-16.43577725582935	70.64088745093964	0	0.95	0	-156.5651291966732	2.921368518331482	29.11004436908468	-27.10196857904652	0	0	0	2.196473925765964	-10.76563092772792	13.15726117462814	-130.8300426424696	0	0	0	0	0	0
0.05	41.39100172330588	-16.49695405942957	70.56867655701149	0	0.95	0	-156.4675445097676	2.876316217167837	29.06903111972017	-27.10181994794727	0	0	0	2.12072090487364	-10.77369777955149	13.01766113551987	-130.7113777670532	0	0	0	0	0	0
0.06	41.3462676355034	-16.57666055761103	70.50453910094602	0	0.95	0	-156.4103183388652	2.834909778237324	29.0552242980753	-27.07920251167423	0	0	0	2.043394354403893	-10.82695443825216	12.88279912433118	-130.4975305641964	0	0	0	0	0	0
0.07000000000000001	41.31600109445754	-16.65539336913517	70.44372919406904	0	0.95	0	-156.3695413404294	2.803516658008413	29.01841716577797	-27.06807619215308	0	0	0	1.945297979353499	-10.90762861531392	12.74309928055943	-130.2622329347568	0	0	0	0	0	0
0.08	41.2732009395911	-16.73383981201532	70.39184843968424	0	0.95	0	-156.3502779459809	2.789674738549138	28.98904823568556	-27.02380543952372	0	0	0	1.895574862373982	-10.93755378282948	12.62433943287002	-130.1169316297182	0	0	0	0	0	0
0.09	41.22525060436725	-16.80636232459841	70.33550263689759	0	0.95	0	-156.3416937861107	2.77202699216066	28.93579639861756	-26.93023118872611	0	0	0	1.765850956100391	-10.95986211898358	12.50015104131344	-129.9702564747957	0	0	0	0	0	0
0.09999999999999999	41.17026196838071	-16.85384567465642	70.29377556822622	0	0.95	0	-156.3578573527541	2.763203556260864	28.88520777470385	-26.86787367823648	0	0	0	1.629589457646766	-10.94995071442994	12.382884498397	-129.8784656708688	0	0	0	0	0	0
0.11	41.08560516718091	-16.91592358716275	70.27678064010381	0	0.95	0	-156.3436482619347	2.7776305485442	28.86248172958017	-26.7937244402859	0	0	0	1.494478267050827	-10.94380592258849	12.30789448912487	-129.6958343964978	0	0	0	0	0	0
0.12	40.98663039451386	-16.97141499617197	70.26866987037702	0	0.95	0	-156.3392784700108	2.791079387563238	28.84216185870835	-26.70168380984242	0	0	0	1.356309605925889	-10.940872041438	12.2439644909932	-129.4631101026236	0	0	0	0	0	0
0.13	40.88416529331948	-17.02424677534348	70.26415663239409	0	0.95	0	-156.3405649752967	2.80756240521193	28.83170408271626	-26.6178689228176	0	0	0	1.224210332013042	-10.92624232239988	12.18254668582195	-129.2646601503948	0	0	0	0	0	0
0.14	40.76800478722517	-17.07970005629076	70.26403936141578	0	0.95	0	-156.3261559602962	2.826866624434458	28.83042713761175	-26.5494340080657	0	0	0	1.112953077873915	-10.89984952919535	12.12833005588386	-129.0850491001778	0	0	0	0	0	0
0.15	40.6386428964807	-17.13636367394597	70.27488859926181	0	0.95	0	-156.302389653626	2.858588215746808	28.82577638565018	-26.48332542698459	0	0	0	1.012481012922471	-10.86964368909106	12.08796168923738	-128.9038920339922	0	0	0	0	0	0
0.16	40.5079001083332	-17.18077682595894	70.28979640544121	0	0.95	0	-156.2868053041662	2.889985494351702	28.81528168392798	-26.3982936812431	0	0	0	0.9045648227566268	-10.84127669268495	12.04902503133541	-128.7197418071456	0	0	0	0	0	0
0.17	40.38487312827806	-17.2043832462129	70.28691583095626	0	0.95	0	-156.2726407222967	2.921731618941068	28.77685876355592	-26.3261260559235	0	0	0	0.7823041975410687	-10.81242854240779	11.99491106278172	-128.5575121774442	0	0	0	0	0	0
0.18	40.2765365834562	-17.18885602106783	70.24460343942027	0	0.95	0	-156.2889885268062	2.938385174983581	28.68420730393689	-26.23754197890131	0	0	0	0.608862417440726	-10.78347693461557	11.88775000817351	-128.3852592238771	0	0	0	0	0	0
0.19	40.20279831361027	-17.12147810036723	70.17818104630173	0	0.95	0	-156.3347076095917	2.931076613953548	28.57997438651374	-26.16504751529122	0	0	0	0.3778800609345188	-10.7749927549454	11.75731267867142	-128.2231130790344	0	0	0	0	0	0
0.2	40.13089574863582	-17.05385970541234	70.12650998655766	0	0.95	0	-156.3639200276444	2.930290793241109	28.48062026556301	-26.15329033060815	0	0	0	0.1690008706599953	-10.7711391679775	11.65113852006684	-128.0437658781206	0	0	0	0	0	0
0.21	40.06215856153254	-16.97638416403002	70.09257056881196	0	0.95	0	-156.3778143927829	2.940691817288048	28.39571927521787	-26.18766226635779	0	0	0	-0.04302479200994919	-10.77284335500122	11.56630255720132	-127.8709532552189	0	0	0	0	0	0
0.2200000000000001	39.98131106225841	-16.89858259227476	70.05948399028003	0	0.95	0	-156.3692045978329	2.965936807524971	28.31030877515697	-26.21745564123979	0	0	0	-0.2162650607281442	-10.75089624907051	11.49461964807416	-127.7580364810399	0	0	0	0	0	0
0.2300000000000001	39.89070555582632	-16.83298843706961	70.03027038521834	0	0.95	0	-156.3195326479559	3.004806943257993	28.2307426597586	-26.23683657924644	0	0	0	-0.3778660393267119	-10.72842091342817	11.42934528773286	-127.6327531467635	0	0	0	0	0	0
0.2400000000000001	39.80604955048228	-16.77160370273284	70.00438795144092	0	0.95	0	-156.2427429887557	3.050698045989598	28.16340529321884	-26.28201494035013	0	0	0	-0.5114325827547714	-10.70824643872748	11.37271034387184	-127.5117362784718	0	0	0	0	0	0
0.2500000000000001	39.7216487241207	-16.71340350810966	69.98520009689878	0	0.95	0	-156.1587796081111	3.11443783448571	28.09363753497599	-26.3382258959627	0	0	0	-0.6452993716757859	-10.67908530057861	11.31575373249694	-127.3472641027519	0	0	0	0	0	0
0.2600000000000001	39.63677842494211	-16.64321379338297	69.96164650592883	0	0.95	0	-156.1111233879286	3.15395182399443	28.03498915959646	-26.38238920705755	0	0	0	-0.7625118643415141	-10.66171365899373	11.2759978597152	-127.1832600501122	0	0	0	0	0	0
0.2700000000000001	39.55918350539012	-16.5559192724252	69.94764688566067	0	0.95	0	-156.1076377480117	3.194897324555222	27.97821578464132	-26.38562555555826	0	0	0	-0.9082395160835834	-10.63362121812195	11.23548889845176	-127.0384538722619	0	0	0	0	0	0
0.2800000000000001	39.47348521388788	-16.46306785306126	69.93100388280988	0	0.95	0	-156.1219755441481	3.230228264987816	27.91013696489891	-26.36946227741022	0	0	0	-1.066011861778477	-10.59042956917388	11.19595025093223	-126.9214031980759	0	0	0	0	0	0
0.2900000000000001	39.41323550932401	-16.35920814836027	69.92187108833359	0	0.95	0	-156.1373343778794	3.261541649094462	27.86821098763386	-26.36152762037534	0	0	0	-1.223743678549284	-10.57454442837944	11.15993439518491	-126.8061467899792	0	0	0	0	0	0
0.3000000000000001	39.36682850125602	-16.23561087287775	69.92394906541128	0	0.95	0	-156.1658850357763	3.292827144414282	27.83477552458755	-26.36052565205224	0	0	0	-1.422839635907732	-10.56717056230644	11.12579819543914	-126.6791442331442	0	0	0	0	0	0
0.3100000000000001	39.32182708215637	-16.11355999075124	69.93899985821714	0	0.95	0	-156.2006061809242	3.322948429209132	27.81996273919519	-26.3496502841468	0	0	0	-1.627727671479304	-10.56875401327297	11.1039353400524	-126.5296592024056	0	0	0	0	0	0
0.3200000000000001	39.28587515512074	-15.98322549131869	69.96506773293636	0	0.95	0	-156.2390427215217	3.357915762922992	27.81699355113897	-26.337982568076	0	0	0	-1.855413463990993	-10.57388155760666	11.09278557086791	-126.3627014976173	0	0	0	0	0	0
0.3300000000000001	39.23360461951798	-15.867963878932	69.98313562939734	0	0.95	0	-156.2611208896571	3.383525141609809	27.82000428176195	-26.32460575074477	0	0	0	-2.066922651879675	-10.5903668355464	11.07494222051192	-126.1897127287346	0	0	0	0	0	0
0.3400000000000001	39.17726482956963	-15.74233803386175	69.99621795126782	0	0.95	0	-156.2904131248714	3.417601770478494	27.82034901202717	-26.31522895062724	0	0	0	-2.30515162284411	-10.60011315128534	11.04702901847648	-125.9901855156345	0	0	0	0	0	0
0.3500000000000001	39.11379295151533	-15.62108708979932	70.01496049112511	0	0.95	0	-156.3134017770716	3.458237517917967	27.82816716147053	-26.31027239088458	0	0	0	-2.539515749010182	-10.61329382202493	11.02338597110011	-125.7520649497341	0	0	0	0	0	0
0.3600000000000002	39.04050477317428	-15.52354532562757	70.03393891570259	0	0.95	0	-156.338801454441	3.488092984543508	27.83985118891702	-26.29418777127495	0	0	0	-2.717932900646987	-10.61702272872356	11.00586585941082	-125.54770667329	0	0	0	0	0	0
0.3700000000000002	38.95193021770131	-15.43454210926704	70.05537952057465	0	0.95	0	-156.3405588580271	3.533455503766972	27.84974229442291	-26.29278287618989	0	0	0	-2.892081514236124	-10.62206654727768	10.98548006280926	-125.3111110599039	0	0	0	0	0	0
0.3800000000000002	38.84628749875093	-15.3569636940104	70.07726532118362	0	0.95	0	-156.3182726097913	3.591524905238483	27.86133671605153	-26.30865793102959	0	0	0	-3.054067170388179	-10.61670744985102	10.96940763130747	-125.1079395279232	0	0	0	0	0	0
0.3900000000000002	38.73305196697748	-15.30315904512487	70.10330911254866	0	0.95	0	-156.2644854321056	3.653736031549663	27.88328803427951	-26.32414649655072	0	0	0	-3.164102566054355	-10.60155948102501	10.96048794192277	-124.9188731957251	0	0	0	0	0	0
0.4000000000000002	38.60575267871712	-15.25666363835911	70.12572909398199	0	0.95	0	-156.1949009664172	3.723914363290531	27.9090473229207	-26.34175070731555	0	0	0	-3.271716336275928	-10.58169500905325	10.94473762948081	-124.7079989843042	0	0	0	0	0	0
